Kooky dual audio version. DVD rip (mp4). Both Czech and English Audio. English and Czech Subtitles included. 

I didn't create this torrent myself, but wanted to make it available here, since it's very rare.

original Czech name: Kuky se vrací 

MP4 info:

General
Format                                   : MPEG-4
Format profile                           : Base Media
Codec ID                                 : isom
File size                                : 1.71 GiB
Duration                                 : 1h 32mn
Overall bit rate mode                    : Variable
Overall bit rate                         : 2 653 Kbps
Encoded date                             : UTC 2012-03-09 19:31:36
Tagged date                              : UTC 2012-03-09 19:31:36
Writing application                      : Yamb 2.1.0.0 [http://yamb.unite-video.com]

Video
ID                                       : 1
Format                                   : AVC
Format/Info                              : Advanced Video Codec
Format profile                           : High@L3.0
Format settings, CABAC                   : Yes
Format settings, ReFrames                : 4 frames
Codec ID                                 : avc1
Codec ID/Info                            : Advanced Video Coding
Duration                                 : 1h 32mn
Bit rate                                 : 2 254 Kbps
Maximum bit rate                         : 12.0 Mbps
Width                                    : 720 pixels
Height                                   : 576 pixels
Display aspect ratio                     : 1.85:1
Frame rate mode                          : Constant
Frame rate                               : 25.000 fps
Standard                                 : PAL
Color space                              : YUV
Chroma subsampling                       : 4:2:0
Bit depth                                : 8 bits
Scan type                                : Progressive
Bits/(Pixel*Frame)                       : 0.217
Stream size                              : 1.45 GiB (85%)
Writing library                          : x264 core 120 r2164 da19765
Encoding settings                        : cabac=1 / ref=3 / deblock=1:0:0 / analyse=0x3:0x113 / me=hex / subme=7 / psy=1 / psy_rd=1.00:0.00 / mixed_ref=1 / me_range=16 / chroma_me=1 / trellis=1 / 8x8dct=1 / cqm=0 / deadzone=21,11 / fast_pskip=1 / chroma_qp_offset=-2 / threads=3 / sliced_threads=0 / nr=0 / decimate=1 / interlaced=0 / bluray_compat=0 / constrained_intra=0 / bframes=3 / b_pyramid=2 / b_adapt=1 / b_bias=0 / direct=1 / weightb=1 / open_gop=0 / weightp=2 / keyint=250 / keyint_min=25 / scenecut=40 / intra_refresh=0 / rc_lookahead=40 / rc=crf / mbtree=1 / crf=20.0 / qcomp=0.60 / qpmin=0 / qpmax=69 / qpstep=4 / ip_ratio=1.40 / aq=1:1.00
Encoded date                             : UTC 2012-03-10 15:44:18
Tagged date                              : UTC 2012-03-09 19:32:35

Audio #1
ID                                       : 2
Format                                   : AAC
Format/Info                              : Advanced Audio Codec
Format profile                           : LC
Codec ID                                 : 40
Duration                                 : 1h 32mn
Bit rate mode                            : Variable
Bit rate                                 : 319 Kbps
Maximum bit rate                         : 507 Kbps
Channel(s)                               : 6 channels
Channel positions                        : Front: L C R, Side: L R, LFE
Sampling rate                            : 48.0 KHz
Compression mode                         : Lossy
Stream size                              : 210 MiB (12%)
Language                                 : English
Encoded date                             : UTC 2012-03-09 19:32:10
Tagged date                              : UTC 2012-03-09 19:32:35

Audio #2
ID                                       : 3
Format                                   : AAC
Format/Info                              : Advanced Audio Codec
Format profile                           : LC
Codec ID                                 : 40
Duration                                 : 1h 32mn
Bit rate mode                            : Variable
Bit rate                                 : 64.2 Kbps
Maximum bit rate                         : 99.4 Kbps
Channel(s)                               : 2 channels
Channel positions                        : Front: L R
Sampling rate                            : 48.0 KHz
Compression mode                         : Lossy
Stream size                              : 42.2 MiB (2%)
Language                                 : Czech
Encoded date                             : UTC 2012-03-09 19:32:28
Tagged date                              : UTC 2012-03-09 19:32:35

Text #1
ID                                       : 4
Format                                   : mp4s
Codec ID                                 : E0
Duration                                 : 1h 28mn
Bit rate mode                            : Variable
Bit rate                                 : 6 520 bps
Maximum bit rate                         : 53.7 Kbps
Stream size                              : 4.14 MiB (0%)
Language                                 : Czech
Encoded date                             : UTC 2012-03-09 19:32:35
Tagged date                              : UTC 2012-03-09 19:32:35

Text #2
ID                                       : 5
Format                                   : mp4s
Codec ID                                 : E0
Duration                                 : 1h 28mn
Bit rate mode                            : Variable
Bit rate                                 : 4 792 bps
Maximum bit rate                         : 47.7 Kbps
Stream size                              : 3.04 MiB (0%)
Language                                 : English
Encoded date                             : UTC 2012-03-09 19:32:35
Tagged date                              : UTC 2012-03-09 19:32:35

